/* XPM */
static char *close_prelight[] = {
/* columns rows colors chars-per-pixel */
"26 32 3 1 ",
"  c #1e1e1e s active_shadow_1",
". c #535353 s active_color_1",
"X c #eeeeee s active_text_color",
/* pixels */
"                          ",
"..........................",
"..........................",
"..........................",
"..........................",
"...XXXXXXXXXXXXXXXXXXXX...",
"..XXXXXXXXXXXXXXXXXXXXXX..",
"..XXXXXXXXXXXXXXXXXXXXXX..",
"..XXXXXXXXXXXXXXXXXXXXXX..",
"..XXXXXXXXXXXXXXXXXXXXXX..",
"..XXXXXX.XXXXXXXX.XXXXXX..",
"..XXXXX...XXXXXX...XXXXX..",
"..XXXXXX...XXXX...XXXXXX..",
"..XXXXXXX...XX...XXXXXXX..",
"..XXXXXXXX......XXXXXXXX..",
"..XXXXXXXXX....XXXXXXXXX..",
"..XXXXXXXXX....XXXXXXXXX..",
"..XXXXXXXX......XXXXXXXX..",
"..XXXXXXX...XX...XXXXXXX..",
"..XXXXXX...XXXX...XXXXXX..",
"..XXXXX...XXXXXX...XXXXX..",
"..XXXXXX.XXXXXXXX.XXXXXX..",
"..XXXXXXXXXXXXXXXXXXXXXX..",
"..XXXXXXXXXXXXXXXXXXXXXX..",
"..XXXXXXXXXXXXXXXXXXXXXX..",
"..XXXXXXXXXXXXXXXXXXXXXX..",
"...XXXXXXXXXXXXXXXXXXXX...",
"..........................",
"..........................",
"..........................",
"..........................",
".........................."
};
