/* XPM */
static char *maximize_active[] = {
/* columns rows colors chars-per-pixel */
"26 32 3 1 ",
"  c #0f0f0f s active_shadow_1",
". c #4f4f4f s active_color_1",
"X c #eeeeee s active_text_color",
/* pixels */
"                          ",
"..........................",
"..........................",
"..........................",
"..........................",
"..........................",
"..........................",
"..........................",
"..........................",
"..........................",
".......XXXXXXXXXXXX.......",
".......XXXXXXXXXXXX.......",
".......XXXXXXXXXXXX.......",
".......X..........X.......",
".......X..........X.......",
".......X..........X.......",
".......X..........X.......",
".......X..........X.......",
".......X..........X.......",
".......X..........X.......",
".......X..........X.......",
".......XXXXXXXXXXXX.......",
"..........................",
"..........................",
"..........................",
"..........................",
"..........................",
"..........................",
"..........................",
"..........................",
"..........................",
".........................."
};
