/* XPM */
static char *maximize_toggled_prelight[] = {
/* columns rows colors chars-per-pixel */
"26 32 3 1 ",
"  c #0f0f0f s active_shadow_1",
". c #4f4f4f s active_color_1",
"X c #eeeeee s active_text_color",
/* pixels */
"                          ",
"..........................",
"..........................",
"..........................",
"..........................",
"...XXXXXXXXXXXXXXXXXXXX...",
"..XXXXXXXXXXXXXXXXXXXXXX..",
"..XXXXXXXXXXXXXXXXXXXXXX..",
"..XXXXXXXXXXXXXXXXXXXXXX..",
"..XXXXXXXXX..........XXX..",
"..XXXXXXXXX..........XXX..",
"..XXXXXXXXX..........XXX..",
"..XXXXXXXXXXXXXXXXXX.XXX..",
"..XXX..........XXXXX.XXX..",
"..XXX..........XXXXX.XXX..",
"..XXX..........XXXXX.XXX..",
"..XXX.XXXXXXXX.XXXXX.XXX..",
"..XXX.XXXXXXXX.XXXXX.XXX..",
"..XXX.XXXXXXXX.X.....XXX..",
"..XXX.XXXXXXXX.XXXXXXXXX..",
"..XXX.XXXXXXXX.XXXXXXXXX..",
"..XXX.XXXXXXXX.XXXXXXXXX..",
"..XXX..........XXXXXXXXX..",
"..XXXXXXXXXXXXXXXXXXXXXX..",
"..XXXXXXXXXXXXXXXXXXXXXX..",
"..XXXXXXXXXXXXXXXXXXXXXX..",
"...XXXXXXXXXXXXXXXXXXXX...",
"..........................",
"..........................",
"..........................",
"..........................",
".........................."
};
