/* XPM */
static char *shade_pressed[] = {
/* columns rows colors chars-per-pixel */
"26 32 3 1 ",
"  c #1e1e1e s active_shadow_1",
". c #535353 s active_color_1",
"X c #eeeeee s active_text_color",
/* pixels */
"                          ",
"..........................",
"..........................",
"..........................",
"..........................",
"..........................",
"...XXXXXXXXXXXXXXXXXXXX...",
"..XXXXXXXXXXXXXXXXXXXXXX..",
"..XXXXXXXXXXXXXXXXXXXXXX..",
"..XXXXXXXXXXXXXXXXXXXXXX..",
"..XXXXXXXXXXXXXXXXXXXXXX..",
"..XXXXXXXXXXXXXXXXXXXXXX..",
"..XXXXXXXXXXXXXXXXXXXXXX..",
"..XXXXXXXXXXXXXXXXXXXXXX..",
"..XXXXXXXXXX..XXXXXXXXXX..",
"..XXXXXXXXX....XXXXXXXXX..",
"..XXXXXXXX......XXXXXXXX..",
"..XXXXXXX...XX...XXXXXXX..",
"..XXXXXX...XXXX...XXXXXX..",
"..XXXXX...XXXXXX...XXXXX..",
"..XXXX...XXXXXXXX...XXXX..",
"..XXXXX.XXXXXXXXXX.XXXXX..",
"..XXXXXXXXXXXXXXXXXXXXXX..",
"..XXXXXXXXXXXXXXXXXXXXXX..",
"..XXXXXXXXXXXXXXXXXXXXXX..",
"..XXXXXXXXXXXXXXXXXXXXXX..",
"..XXXXXXXXXXXXXXXXXXXXXX..",
"...XXXXXXXXXXXXXXXXXXXX...",
"..........................",
"..........................",
"..........................",
".........................."
};
