/* XPM */
static char *shade_prelight[] = {
/* columns rows colors chars-per-pixel */
"40 44 3 1 ",
"  c #0f0f0f s active_shadow_1",
". c #4f4f4f s active_color_1",
"X c #eeeeee s active_text_color",
/* pixels */
"                                        ",
"........................................",
"........................................",
"........................................",
"........................................",
"........................................",
".....XXXXXXXXXXXXXXXXXXXXXXXXXXXXXX.....",
"....XXXXXXXXXXXXXXXXXXXXXXXXXXXXXXXX....",
"....XXXXXXXXXXXXXXXXXXXXXXXXXXXXXXXX....",
"....XXXXXXXXXXXXXXXXXXXXXXXXXXXXXXXX....",
"....XXXXXXXXXXXXXXXXXXXXXXXXXXXXXXXX....",
"....XXXXXXXXXXXXXXXXXXXXXXXXXXXXXXXX....",
"....XXXXXXXXXXXXXXXXXXXXXXXXXXXXXXXX....",
"....XXXXXXXXXXXXXXXXXXXXXXXXXXXXXXXX....",
"....XXXXXXXXXXXXXXXXXXXXXXXXXXXXXXXX....",
"....XXXXXXXXXXXXXXXXXXXXXXXXXXXXXXXX....",
"....XXXXXXXXXXXXXXX..XXXXXXXXXXXXXXX....",
"....XXXXXXXXXXXXXX....XXXXXXXXXXXXXX....",
"....XXXXXXXXXXXXX......XXXXXXXXXXXXX....",
"....XXXXXXXXXXXX........XXXXXXXXXXXX....",
"....XXXXXXXXXXX..........XXXXXXXXXXX....",
"....XXXXXXXXXX.....XX.....XXXXXXXXXX....",
"....XXXXXXXXX.....XXXX.....XXXXXXXXX....",
"....XXXXXXXX.....XXXXXX.....XXXXXXXX....",
"....XXXXXXX.....XXXXXXXX.....XXXXXXX....",
"....XXXXXX.....XXXXXXXXXX.....XXXXXX....",
"....XXXXX.....XXXXXXXXXXXX.....XXXXX....",
"....XXXXXX...XXXXXXXXXXXXXX...XXXXXX....",
"....XXXXXXX.XXXXXXXXXXXXXXXX.XXXXXXX....",
"....XXXXXXXXXXXXXXXXXXXXXXXXXXXXXXXX....",
"....XXXXXXXXXXXXXXXXXXXXXXXXXXXXXXXX....",
"....XXXXXXXXXXXXXXXXXXXXXXXXXXXXXXXX....",
"....XXXXXXXXXXXXXXXXXXXXXXXXXXXXXXXX....",
"....XXXXXXXXXXXXXXXXXXXXXXXXXXXXXXXX....",
"....XXXXXXXXXXXXXXXXXXXXXXXXXXXXXXXX....",
"....XXXXXXXXXXXXXXXXXXXXXXXXXXXXXXXX....",
"....XXXXXXXXXXXXXXXXXXXXXXXXXXXXXXXX....",
".....XXXXXXXXXXXXXXXXXXXXXXXXXXXXXX.....",
"........................................",
"........................................",
"........................................",
"........................................",
"........................................",
"........................................"
};
