/* XPM */
static char *shade_toggled_inactive[] = {
/* columns rows colors chars-per-pixel */
"40 44 3 1 ",
"  c #0f0f0f s inactive_mid_2",
". c #353535 s inactive_hilight_1",
"X c #bbbbbb s inactive_text_color",
/* pixels */
"                                        ",
"........................................",
"........................................",
"........................................",
"........................................",
"........................................",
"........................................",
"........................................",
"........................................",
"........................................",
"........................................",
"........................................",
"........................................",
"........................................",
"........................................",
"........................................",
"........................................",
"........................................",
"...........X................X...........",
"..........XXX..............XXX..........",
".........XXXXX............XXXXX.........",
"..........XXXXX..........XXXXX..........",
"...........XXXXX........XXXXX...........",
"............XXXXX......XXXXX............",
".............XXXXX....XXXXX.............",
"..............XXXXX..XXXXX..............",
"...............XXXXXXXXXX...............",
"................XXXXXXXX................",
".................XXXXXX.................",
"..................XXXX..................",
"...................XX...................",
"........................................",
"........................................",
"........................................",
"........................................",
"........................................",
"........................................",
"........................................",
"........................................",
"........................................",
"........................................",
"........................................",
"........................................",
"........................................"
};
