/* XPM */
static char *stick_toggled_inactive[] = {
/* columns rows colors chars-per-pixel */
"40 44 3 1 ",
"  c #1e1e1e s inactive_shadow_2",
". c #353535 s inactive_color_2",
"X c #bbbbbb s inactive_text_color",
/* pixels */
"                                        ",
"........................................",
"........................................",
"........................................",
"........................................",
"........................................",
"........................................",
"........................................",
"........................................",
"........................................",
"........................................",
"........................................",
"........................................",
"...........XXXXXXXX..XXXXXXXX...........",
"...........XXXXXXXX..XXXXXXXX...........",
"...........XXXXXXXX..XXXXXXXX...........",
"...........XXXXXXXX..XXXXXXXX...........",
"...........XXXXXXXX..XXXXXXXX...........",
"...........XXXXXXXX..XXXXXXXX...........",
"...........XXXXXXXX..XXXXXXXX...........",
"...........XXXXXXXX..XXXXXXXX...........",
"........................................",
"........................................",
"...........XXXXXXXX..XXXXXXXX...........",
"...........XXXXXXXX..XXXXXXXX...........",
"...........XXXXXXXX..XXXXXXXX...........",
"...........XXXXXXXX..XXXXXXXX...........",
"...........XXXXXXXX..XXXXXXXX...........",
"...........XXXXXXXX..XXXXXXXX...........",
"...........XXXXXXXX..XXXXXXXX...........",
"...........XXXXXXXX..XXXXXXXX...........",
"........................................",
"........................................",
"........................................",
"........................................",
"........................................",
"........................................",
"........................................",
"........................................",
"........................................",
"........................................",
"........................................",
"........................................",
"........................................"
};
