/* XPM */
static char *top_right_inactive[] = {
/* columns rows colors chars-per-pixel */
"6 44 3 1 ",
"  c None",
". c #0f0f0f s inactive_mid_2",
"X c #353535 s inactive_hilight_1",
/* pixels */
"......",
"XXXX..",
"XXXX..",
"XXXX..",
"XXXX..",
"XXXX..",
"XXXX..",
"XXXX..",
"XXXX..",
"XXXX..",
"XXXX..",
"XXXX..",
"XXXX..",
"XXXX..",
"XXXX..",
"XXXX..",
"XXXX..",
"XXXX..",
"XXXX..",
"XXXX..",
"XXXX..",
"XXXX..",
"XXXX..",
"XXXX..",
"XXXX..",
"XXXX..",
"XXXX..",
"XXXX..",
"XXXX..",
"XXXX..",
"XXXX..",
"XXXX..",
"XXXX..",
"XXXX..",
"XXXX..",
"XXXX..",
"XXXX..",
"XXXX..",
"XXXX..",
"XXXX..",
"XXXX..",
"XXXX..",
"XXXX..",
"XXXX.."
};
