/* XPM */
static char *top_left_active[] = {
/* columns rows colors chars-per-pixel */
"6 44 3 1 ",
"  c None",
". c #0f0f0f s active_shadow_1",
"X c #4f4f4f s active_color_1",
/* pixels */
"......",
"..XXXX",
"..XXXX",
"..XXXX",
"..XXXX",
"..XXXX",
"..XXXX",
"..XXXX",
"..XXXX",
"..XXXX",
"..XXXX",
"..XXXX",
"..XXXX",
"..XXXX",
"..XXXX",
"..XXXX",
"..XXXX",
"..XXXX",
"..XXXX",
"..XXXX",
"..XXXX",
"..XXXX",
"..XXXX",
"..XXXX",
"..XXXX",
"..XXXX",
"..XXXX",
"..XXXX",
"..XXXX",
"..XXXX",
"..XXXX",
"..XXXX",
"..XXXX",
"..XXXX",
"..XXXX",
"..XXXX",
"..XXXX",
"..XXXX",
"..XXXX",
"..XXXX",
"..XXXX",
"..XXXX",
"..XXXX",
"..XXXX"
};
