/* XPM */
static char *top_left_active[] = {
/* columns rows colors chars-per-pixel */
"6 44 3 1 ",
"  c None",
". c #1e1e1e s active_shadow_1",
"X c #535353 s active_color_1",
/* pixels */
"......",
"..XXXX",
"..XXXX",
"..XXXX",
"..XXXX",
"..XXXX",
"..XXXX",
"..XXXX",
"..XXXX",
"..XXXX",
"..XXXX",
"..XXXX",
"..XXXX",
"..XXXX",
"..XXXX",
"..XXXX",
"..XXXX",
"..XXXX",
"..XXXX",
"..XXXX",
"..XXXX",
"..XXXX",
"..XXXX",
"..XXXX",
"..XXXX",
"..XXXX",
"..XXXX",
"..XXXX",
"..XXXX",
"..XXXX",
"..XXXX",
"..XXXX",
"..XXXX",
"..XXXX",
"..XXXX",
"..XXXX",
"..XXXX",
"..XXXX",
"..XXXX",
"..XXXX",
"..XXXX",
"..XXXX",
"..XXXX",
"..XXXX"
};
