/* XPM */
static char *bottom_active[] = {
/* columns rows colors chars-per-pixel */
"40 6 2 1 ",
"  c #0f0f0f s active_shadow_1",
". c #4f4f4f s active_color_1",
/* pixels */
"........................................",
"........................................",
"........................................",
"........................................",
"                                        ",
"                                        "
};
