/* XPM */
static char *maximize_toggled_active[] = {
/* columns rows colors chars-per-pixel */
"40 40 3 1 ",
"  c #0f0f0f s active_shadow_1",
". c #4f4f4f s active_color_1",
"X c #eeeeee s active_text_color",
/* pixels */
"                                        ",
"                                        ",
"........................................",
"........................................",
"........................................",
"........................................",
"........................................",
"........................................",
"........................................",
"........................................",
"..................XXXXXXXXXXXXXX........",
"..................XXXXXXXXXXXXXX........",
"..................XXXXXXXXXXXXXX........",
"..................XXXXXXXXXXXXXX........",
"..............................XX........",
"..............................XX........",
"........XXXXXXXXXXXXXX........XX........",
"........XXXXXXXXXXXXXX........XX........",
"........XXXXXXXXXXXXXX........XX........",
"........XXXXXXXXXXXXXX........XX........",
"........XX..........XX........XX........",
"........XX..........XX........XX........",
"........XX..........XX..XXXXXXXX........",
"........XX..........XX..XXXXXXXX........",
"........XX..........XX..................",
"........XX..........XX..................",
"........XX..........XX..................",
"........XX..........XX..................",
"........XXXXXXXXXXXXXX..................",
"........XXXXXXXXXXXXXX..................",
"........................................",
"........................................",
"........................................",
"........................................",
"........................................",
"........................................",
"........................................",
"........................................",
"........................................",
"........................................"
};
