/* XPM */
static char *right_active[] = {
/* columns rows colors chars-per-pixel */
"6 20 2 1 ",
"  c #1e1e1e s active_shadow_1",
". c #535353 s active_color_1",
/* pixels */
"....  ",
"....  ",
"....  ",
"....  ",
"....  ",
"....  ",
"....  ",
"....  ",
"....  ",
"....  ",
"....  ",
"....  ",
"....  ",
"....  ",
"....  ",
"....  ",
"....  ",
"....  ",
"....  ",
"....  "
};
