/* XPM */
static char *title_4_inactive[] = {
/* columns rows colors chars-per-pixel */
"16 40 2 1 ",
"  c #1e1e1e s inactive_shadow_2",
". c #353535 s inactive_color_2",
/* pixels */
"                ",
"                ",
"................",
"................",
"................",
"................",
"................",
"................",
"................",
"................",
"................",
"................",
"................",
"................",
"................",
"................",
"................",
"................",
"................",
"................",
"................",
"................",
"................",
"................",
"................",
"................",
"................",
"................",
"................",
"................",
"................",
"................",
"................",
"................",
"................",
"................",
"................",
"................",
"................",
"................"
};
