/* XPM */
static char *title_1_active[] = {
/* columns rows colors chars-per-pixel */
"16 40 2 1 ",
"  c #1e1e1e s active_shadow_1",
". c #535353 s active_color_1",
/* pixels */
"                ",
"                ",
"................",
"................",
"................",
"................",
"................",
"................",
"................",
"................",
"................",
"................",
"................",
"................",
"................",
"................",
"................",
"................",
"................",
"................",
"................",
"................",
"................",
"................",
"................",
"................",
"................",
"................",
"................",
"................",
"................",
"................",
"................",
"................",
"................",
"................",
"................",
"................",
"................",
"................"
};
