/* XPM */
static char *close_prelight[] = {
/* columns rows colors chars-per-pixel */
"40 48 3 1 ",
"  c #1e1e1e s active_shadow_1",
". c #535353 s active_color_1",
"X c #eeeeee s active_text_color",
/* pixels */
"                                        ",
"........................................",
"........................................",
"........................................",
"........................................",
"........................................",
"........................................",
"........................................",
".....XXXXXXXXXXXXXXXXXXXXXXXXXXXXXX.....",
"....XXXXXXXXXXXXXXXXXXXXXXXXXXXXXXXX....",
"....XXXXXXXXXXXXXXXXXXXXXXXXXXXXXXXX....",
"....XXXXXXXXXXXXXXXXXXXXXXXXXXXXXXXX....",
"....XXXXXXXXXXXXXXXXXXXXXXXXXXXXXXXX....",
"....XXXXXXXXXXXXXXXXXXXXXXXXXXXXXXXX....",
"....XXXXXXXXXXXXXXXXXXXXXXXXXXXXXXXX....",
"....XXXXXXXXX.XXXXXXXXXXXX.XXXXXXXXX....",
"....XXXXXXXX...XXXXXXXXXX...XXXXXXXX....",
"....XXXXXXX.....XXXXXXXX.....XXXXXXX....",
"....XXXXXXXX.....XXXXXX.....XXXXXXXX....",
"....XXXXXXXXX.....XXXX.....XXXXXXXXX....",
"....XXXXXXXXXX.....XX.....XXXXXXXXXX....",
"....XXXXXXXXXXX..........XXXXXXXXXXX....",
"....XXXXXXXXXXXX........XXXXXXXXXXXX....",
"....XXXXXXXXXXXXX......XXXXXXXXXXXXX....",
"....XXXXXXXXXXXXX......XXXXXXXXXXXXX....",
"....XXXXXXXXXXXX........XXXXXXXXXXXX....",
"....XXXXXXXXXXX..........XXXXXXXXXXX....",
"....XXXXXXXXXX.....XX.....XXXXXXXXXX....",
"....XXXXXXXXX.....XXXX.....XXXXXXXXX....",
"....XXXXXXXX.....XXXXXX.....XXXXXXXX....",
"....XXXXXXX.....XXXXXXXX.....XXXXXXX....",
"....XXXXXXXX...XXXXXXXXXX...XXXXXXXX....",
"....XXXXXXXXX.XXXXXXXXXXXX.XXXXXXXXX....",
"....XXXXXXXXXXXXXXXXXXXXXXXXXXXXXXXX....",
"....XXXXXXXXXXXXXXXXXXXXXXXXXXXXXXXX....",
"....XXXXXXXXXXXXXXXXXXXXXXXXXXXXXXXX....",
"....XXXXXXXXXXXXXXXXXXXXXXXXXXXXXXXX....",
"....XXXXXXXXXXXXXXXXXXXXXXXXXXXXXXXX....",
"....XXXXXXXXXXXXXXXXXXXXXXXXXXXXXXXX....",
".....XXXXXXXXXXXXXXXXXXXXXXXXXXXXXX.....",
"........................................",
"........................................",
"........................................",
"........................................",
"........................................",
"........................................",
"........................................",
"........................................"
};
