/* XPM */
static char *close_active[] = {
/* columns rows colors chars-per-pixel */
"40 48 3 1 ",
"  c #1e1e1e s active_shadow_1",
". c #535353 s active_color_1",
"X c #eeeeee s active_text_color",
/* pixels */
"                                        ",
"........................................",
"........................................",
"........................................",
"........................................",
"........................................",
"........................................",
"........................................",
"........................................",
"........................................",
"........................................",
"........................................",
"........................................",
"........................................",
"........................................",
".............X............X.............",
"............XXX..........XXX............",
"...........XXXXX........XXXXX...........",
"............XXXXX......XXXXX............",
".............XXXXX....XXXXX.............",
"..............XXXXX..XXXXX..............",
"...............XXXXXXXXXX...............",
"................XXXXXXXX................",
".................XXXXXX.................",
".................XXXXXX.................",
"................XXXXXXXX................",
"...............XXXXXXXXXX...............",
"..............XXXXX..XXXXX..............",
".............XXXXX....XXXXX.............",
"............XXXXX......XXXXX............",
"...........XXXXX........XXXXX...........",
"............XXX..........XXX............",
".............X............X.............",
"........................................",
"........................................",
"........................................",
"........................................",
"........................................",
"........................................",
"........................................",
"........................................",
"........................................",
"........................................",
"........................................",
"........................................",
"........................................",
"........................................",
"........................................"
};
