/* XPM */
static char *maximize_toggled_inactive[] = {
/* columns rows colors chars-per-pixel */
"40 48 3 1 ",
"  c #0f0f0f s inactive_mid_2",
". c #353535 s inactive_hilight_1",
"X c #bbbbbb s inactive_text_color",
/* pixels */
"                                        ",
"........................................",
"........................................",
"........................................",
"........................................",
"........................................",
"........................................",
"........................................",
"........................................",
"........................................",
"........................................",
"........................................",
"........................................",
"........................................",
"..................XXXXXXXXXXXXXX........",
"..................XXXXXXXXXXXXXX........",
"..................XXXXXXXXXXXXXX........",
"..................XXXXXXXXXXXXXX........",
"..............................XX........",
"..............................XX........",
"........XXXXXXXXXXXXXX........XX........",
"........XXXXXXXXXXXXXX........XX........",
"........XXXXXXXXXXXXXX........XX........",
"........XXXXXXXXXXXXXX........XX........",
"........XX..........XX........XX........",
"........XX..........XX........XX........",
"........XX..........XX..XXXXXXXX........",
"........XX..........XX..XXXXXXXX........",
"........XX..........XX..................",
"........XX..........XX..................",
"........XX..........XX..................",
"........XX..........XX..................",
"........XXXXXXXXXXXXXX..................",
"........XXXXXXXXXXXXXX..................",
"........................................",
"........................................",
"........................................",
"........................................",
"........................................",
"........................................",
"........................................",
"........................................",
"........................................",
"........................................",
"........................................",
"........................................",
"........................................",
"........................................"
};
