/* XPM */
static char *shade_toggled_pressed[] = {
/* columns rows colors chars-per-pixel */
"40 48 3 1 ",
"  c #0f0f0f s active_shadow_1",
". c #4f4f4f s active_color_1",
"X c #eeeeee s active_text_color",
/* pixels */
"                                        ",
"........................................",
"........................................",
"........................................",
"........................................",
"........................................",
"........................................",
"........................................",
"........................................",
"........................................",
".....XXXXXXXXXXXXXXXXXXXXXXXXXXXXXX.....",
"....XXXXXXXXXXXXXXXXXXXXXXXXXXXXXXXX....",
"....XXXXXXXXXXXXXXXXXXXXXXXXXXXXXXXX....",
"....XXXXXXXXXXXXXXXXXXXXXXXXXXXXXXXX....",
"....XXXXXXXXXXXXXXXXXXXXXXXXXXXXXXXX....",
"....XXXXXXXXXXXXXXXXXXXXXXXXXXXXXXXX....",
"....XXXXXXXXXXXXXXXXXXXXXXXXXXXXXXXX....",
"....XXXXXXXXXXXXXXXXXXXXXXXXXXXXXXXX....",
"....XXXXXXXXXXXXXXXXXXXXXXXXXXXXXXXX....",
"....XXXXXXXXXXXXXXXXXXXXXXXXXXXXXXXX....",
"....XXXXXXXXXXXXXXXXXXXXXXXXXXXXXXXX....",
"....XXXXXXXXXXXXXXXXXXXXXXXXXXXXXXXX....",
"....XXXXXXX.XXXXXXXXXXXXXXXX.XXXXXXX....",
"....XXXXXX...XXXXXXXXXXXXXX...XXXXXX....",
"....XXXXX.....XXXXXXXXXXXX.....XXXXX....",
"....XXXXXX.....XXXXXXXXXX.....XXXXXX....",
"....XXXXXXX.....XXXXXXXX.....XXXXXXX....",
"....XXXXXXXX.....XXXXXX.....XXXXXXXX....",
"....XXXXXXXXX.....XXXX.....XXXXXXXXX....",
"....XXXXXXXXXX.....XX.....XXXXXXXXXX....",
"....XXXXXXXXXXX..........XXXXXXXXXXX....",
"....XXXXXXXXXXXX........XXXXXXXXXXXX....",
"....XXXXXXXXXXXXX......XXXXXXXXXXXXX....",
"....XXXXXXXXXXXXXX....XXXXXXXXXXXXXX....",
"....XXXXXXXXXXXXXXX..XXXXXXXXXXXXXXX....",
"....XXXXXXXXXXXXXXXXXXXXXXXXXXXXXXXX....",
"....XXXXXXXXXXXXXXXXXXXXXXXXXXXXXXXX....",
"....XXXXXXXXXXXXXXXXXXXXXXXXXXXXXXXX....",
"....XXXXXXXXXXXXXXXXXXXXXXXXXXXXXXXX....",
"....XXXXXXXXXXXXXXXXXXXXXXXXXXXXXXXX....",
"....XXXXXXXXXXXXXXXXXXXXXXXXXXXXXXXX....",
".....XXXXXXXXXXXXXXXXXXXXXXXXXXXXXX.....",
"........................................",
"........................................",
"........................................",
"........................................",
"........................................",
"........................................"
};
