/* XPM */
static char *top_right_active[] = {
/* columns rows colors chars-per-pixel */
"6 48 3 1 ",
"  c None",
". c #0f0f0f s active_shadow_1",
"X c #4f4f4f s active_color_1",
/* pixels */
"......",
"XXXX..",
"XXXX..",
"XXXX..",
"XXXX..",
"XXXX..",
"XXXX..",
"XXXX..",
"XXXX..",
"XXXX..",
"XXXX..",
"XXXX..",
"XXXX..",
"XXXX..",
"XXXX..",
"XXXX..",
"XXXX..",
"XXXX..",
"XXXX..",
"XXXX..",
"XXXX..",
"XXXX..",
"XXXX..",
"XXXX..",
"XXXX..",
"XXXX..",
"XXXX..",
"XXXX..",
"XXXX..",
"XXXX..",
"XXXX..",
"XXXX..",
"XXXX..",
"XXXX..",
"XXXX..",
"XXXX..",
"XXXX..",
"XXXX..",
"XXXX..",
"XXXX..",
"XXXX..",
"XXXX..",
"XXXX..",
"XXXX..",
"XXXX..",
"XXXX..",
"XXXX..",
"XXXX.."
};
