/* XPM */
static char *close_inactive[] = {
/* columns rows colors chars-per-pixel */
"20 24 3 1 ",
"  c #1e1e1e s inactive_shadow_2",
". c #353535 s inactive_color_2",
"X c #bbbbbb s inactive_text_color",
/* pixels */
"                    ",
"....................",
"....................",
"....................",
"....................",
"....................",
"....................",
"......X......X......",
".....XXX....XXX.....",
"......XXX..XXX......",
".......XXXXXX.......",
"........XXXX........",
"........XXXX........",
".......XXXXXX.......",
"......XXX..XXX......",
".....XXX....XXX.....",
"......X......X......",
"....................",
"....................",
"....................",
"....................",
"....................",
"....................",
"...................."
};
