/* XPM */
static char *maximize_toggled_inactive[] = {
/* columns rows colors chars-per-pixel */
"20 24 3 1 ",
"  c #0f0f0f s inactive_mid_2",
". c #353535 s inactive_hilight_1",
"X c #bbbbbb s inactive_text_color",
/* pixels */
"                    ",
"....................",
"....................",
"....................",
"....................",
"....................",
"....................",
".........XXXXXXX....",
".........XXXXXXX....",
"...............X....",
"....XXXXXXX....X....",
"....XXXXXXX....X....",
"....X.....X....X....",
"....X.....X.XXXX....",
"....X.....X.........",
"....X.....X.........",
"....XXXXXXX.........",
"....................",
"....................",
"....................",
"....................",
"....................",
"....................",
"...................."
};
