/* XPM */
static char *maximize_toggled_prelight[] = {
/* columns rows colors chars-per-pixel */
"20 24 3 1 ",
"  c #0f0f0f s active_shadow_1",
". c #4f4f4f s active_color_1",
"X c #eeeeee s active_text_color",
/* pixels */
"                    ",
"....................",
"....................",
"....................",
"...XXXXXXXXXXXXXX...",
"..XXXXXXXXXXXXXXXX..",
"..XXXXXXXXXXXXXXXX..",
"..XXXXXXX.......XX..",
"..XXXXXXX.......XX..",
"..XXXXXXXXXXXXX.XX..",
"..XX.......XXXX.XX..",
"..XX.......XXXX.XX..",
"..XX.XXXXX.XXXX.XX..",
"..XX.XXXXX.X....XX..",
"..XX.XXXXX.XXXXXXX..",
"..XX.XXXXX.XXXXXXX..",
"..XX.......XXXXXXX..",
"..XXXXXXXXXXXXXXXX..",
"..XXXXXXXXXXXXXXXX..",
"...XXXXXXXXXXXXXX...",
"....................",
"....................",
"....................",
"...................."
};
