/* XPM */
static char *shade_pressed[] = {
/* columns rows colors chars-per-pixel */
"20 24 3 1 ",
"  c #1e1e1e s active_shadow_1",
". c #535353 s active_color_1",
"X c #eeeeee s active_text_color",
/* pixels */
"                    ",
"....................",
"....................",
"....................",
"....................",
"...XXXXXXXXXXXXXX...",
"..XXXXXXXXXXXXXXXX..",
"..XXXXXXXXXXXXXXXX..",
"..XXXXXXXXXXXXXXXX..",
"..XXXXXXXXXXXXXXXX..",
"..XXXXXXX..XXXXXXX..",
"..XXXXXX....XXXXXX..",
"..XXXXX......XXXXX..",
"..XXXX...XX...XXXX..",
"..XXX...XXXX...XXX..",
"..XX...XXXXXX...XX..",
"..XXX.XXXXXXXX.XXX..",
"..XXXXXXXXXXXXXXXX..",
"..XXXXXXXXXXXXXXXX..",
"..XXXXXXXXXXXXXXXX..",
"...XXXXXXXXXXXXXX...",
"....................",
"....................",
"...................."
};
