/* XPM */
static char *stick_active[] = {
/* columns rows colors chars-per-pixel */
"20 24 3 1 ",
"  c #1e1e1e s active_shadow_1",
". c #535353 s active_color_1",
"X c #eeeeee s active_text_color",
/* pixels */
"                    ",
"....................",
"....................",
"....................",
"....................",
"....................",
"....................",
"....................",
"....................",
".......XXXXXX.......",
".......XXXXXX.......",
".......XXXXXX.......",
".......XXXXXX.......",
".......XXXXXX.......",
".......XXXXXX.......",
"....................",
"....................",
"....................",
"....................",
"....................",
"....................",
"....................",
"....................",
"...................."
};
