/* XPM */
static char *bottom_inactive[] = {
/* columns rows colors chars-per-pixel */
"40 6 2 1 ",
". c #0f0f0f s inactive_mid_2",
"X c #353535 s inactive_hilight_1",
/* pixels */
"XXXXXXXXXXXXXXXXXXXXXXXXXXXXXXXXXXXXXXXX",
"XXXXXXXXXXXXXXXXXXXXXXXXXXXXXXXXXXXXXXXX",
"XXXXXXXXXXXXXXXXXXXXXXXXXXXXXXXXXXXXXXXX",
"XXXXXXXXXXXXXXXXXXXXXXXXXXXXXXXXXXXXXXXX",
"........................................",
"........................................"
};
