/* XPM */
static char *title_5_active[] = {
/* columns rows colors chars-per-pixel */
"16 6 2 1 ",
". c #0f0f0f s active_shadow_1",
"X c #4f4f4f s active_color_1",
/* pixels */
"................",
"................",
"XXXXXXXXXXXXXXXX",
"XXXXXXXXXXXXXXXX",
"XXXXXXXXXXXXXXXX",
"XXXXXXXXXXXXXXXX"
};
