/* XPM */
static char *title_2_active[] = {
/* columns rows colors chars-per-pixel */
"16 6 2 1 ",
". c #1e1e1e s active_shadow_1",
"X c #535353 s active_color_1",
/* pixels */
"................",
"................",
"XXXXXXXXXXXXXXXX",
"XXXXXXXXXXXXXXXX",
"XXXXXXXXXXXXXXXX",
"XXXXXXXXXXXXXXXX"
};
