/* XPM */
static char *title_3_inactive[] = {
/* columns rows colors chars-per-pixel */
"16 6 2 1 ",
". c #1e1e1e s inactive_shadow_2",
"X c #353535 s inactive_color_2",
/* pixels */
"................",
"................",
"XXXXXXXXXXXXXXXX",
"XXXXXXXXXXXXXXXX",
"XXXXXXXXXXXXXXXX",
"XXXXXXXXXXXXXXXX"
};
