/* XPM */
static char *menu_inactive[] = {
/* columns rows colors chars-per-pixel */
"20 22 2 1 ",
"  c #1e1e1e s inactive_shadow_2",
". c #353535 s inactive_color_2",
/* pixels */
"                    ",
"....................",
"....................",
"....................",
"....................",
"....................",
"....................",
"....................",
"....................",
"....................",
"....................",
"....................",
"....................",
"....................",
"....................",
"....................",
"....................",
"....................",
"....................",
"....................",
"....................",
"...................."
};
