/* XPM */
static char *shade_toggled_inactive[] = {
/* columns rows colors chars-per-pixel */
"20 22 3 1 ",
"  c #1e1e1e s inactive_shadow_2",
". c #353535 s inactive_color_2",
"X c #bbbbbb s inactive_text_color",
/* pixels */
"                    ",
"....................",
"....................",
"....................",
"....................",
"....................",
"....................",
"....................",
"....................",
".....X........X.....",
"....XXX......XXX....",
".....XXX....XXX.....",
"......XXX..XXX......",
".......XXXXXX.......",
"........XXXX........",
".........XX.........",
"....................",
"....................",
"....................",
"....................",
"....................",
"...................."
};
