/* XPM */
static char *shade_toggled_prelight[] = {
/* columns rows colors chars-per-pixel */
"20 22 3 1 ",
"  c #0f0f0f s active_shadow_1",
". c #4f4f4f s active_color_1",
"X c #eeeeee s active_text_color",
/* pixels */
"                    ",
"....................",
"....................",
"...XXXXXXXXXXXXXX...",
"..XXXXXXXXXXXXXXXX..",
"..XXXXXXXXXXXXXXXX..",
"..XXXXXXXXXXXXXXXX..",
"..XXXXXXXXXXXXXXXX..",
"..XXXXXXXXXXXXXXXX..",
"..XXX.XXXXXXXX.XXX..",
"..XX...XXXXXX...XX..",
"..XXX...XXXX...XXX..",
"..XXXX...XX...XXXX..",
"..XXXXX......XXXXX..",
"..XXXXXX....XXXXXX..",
"..XXXXXXX..XXXXXXX..",
"..XXXXXXXXXXXXXXXX..",
"..XXXXXXXXXXXXXXXX..",
"...XXXXXXXXXXXXXX...",
"....................",
"....................",
"...................."
};
