/* XPM */
static char *stick_inactive[] = {
/* columns rows colors chars-per-pixel */
"20 22 3 1 ",
"  c #0f0f0f s inactive_mid_2",
". c #353535 s inactive_hilight_1",
"X c #bbbbbb s inactive_text_color",
/* pixels */
"                    ",
"....................",
"....................",
"....................",
"....................",
"....................",
"....................",
"....................",
".......XXXXXX.......",
".......XXXXXX.......",
".......XXXXXX.......",
".......XXXXXX.......",
".......XXXXXX.......",
".......XXXXXX.......",
"....................",
"....................",
"....................",
"....................",
"....................",
"....................",
"....................",
"...................."
};
