/* XPM */
static char *title_5_inactive[] = {
/* columns rows colors chars-per-pixel */
"8 22 2 1 ",
"  c #0f0f0f s inactive_mid_2",
". c #353535 s inactive_hilight_1",
/* pixels */
"        ",
"........",
"........",
"........",
"........",
"........",
"........",
"........",
"........",
"........",
"........",
"........",
"........",
"........",
"........",
"........",
"........",
"........",
"........",
"........",
"........",
"........"
};
