/* XPM */
static char *top_left_active[] = {
/* columns rows colors chars-per-pixel */
"2 22 3 1 ",
"  c None",
". c #1e1e1e s active_shadow_1",
"X c #535353 s active_color_1",
/* pixels */
"..",
".X",
".X",
".X",
".X",
".X",
".X",
".X",
".X",
".X",
".X",
".X",
".X",
".X",
".X",
".X",
".X",
".X",
".X",
".X",
".X",
".X"
};
